# xmcd CD database file
#
# Track frame offsets:
# 150
# 12453
# 30013
# 40342
# 54548
# 58605
# 73170
# 94764
# 107095
# 118218
# 127466
# 137885
# 147119
# 163068
# 179981
# 187601
# 195482
#
# Disc length: 2780 seconds
# Revision: 24
# Processed by: cddbd v1.5.2PL0 Copyright (c) Steve Scherf et al.
# Submitted via: MusicBin 0.4
#
DISCID=fd0ada11
DTITLE=Beatles - The Beatles (The White Album) (Mono) [CD1]
DYEAR=1968
DGENRE=Rock
TTITLE0=Back In The U.S.S.R. (Mono)
TTITLE1=Dear Prudence (Mono)
TTITLE2=Glass Onion (Mono)
TTITLE3=Ob-La-Di, Ob-La-Da (Mono)
TTITLE4=Wild Honey Pie (Mono)
TTITLE5=The Continuing Story Of Bungalow Bill (Mono)
TTITLE6=While My Guitar Gently Weeps (Mono)
TTITLE7=Happiness Is A Warm Gun (Mono)
TTITLE8=Martha My Dear (Mono)
TTITLE9=I'm So Tired (Mono)
TTITLE10=Blackbird (Mono)
TTITLE11=Piggies (Mono)
TTITLE12=Rocky Racoon (Mono)
TTITLE13=Don't Pass Me By (Mono)
TTITLE14=Why Don't We Do It In The Road? (Mono)
TTITLE15=I Will (Mono)
TTITLE16=Julia (Mono)
EXTD=YEAR: 1968
EXTT0=
EXTT1=
EXTT2=
EXTT3=
EXTT4=
EXTT5=
EXTT6=
EXTT7=
EXTT8=
EXTT9=
EXTT10=
EXTT11=
EXTT12=
EXTT13=
EXTT14=
EXTT15=
EXTT16=
PLAYORDER=
